PathFileType	4	(X/Y/Z)	E:/New_biomech_experiments/27_06_2024_Shreyas_Arm26_updated ground/Afternoon session/Neeraj_PP_27_6_24_elbow_flexion_t01.trc										
DataRate	CameraRate	NumFrames	NumMarkers	Units	OrigDataRate	OrigDataStartFrame	OrigNumFrames						
120	120	92	4	m	120	1632	6524						
Frame#	Time	r_acromion			r_humerus_epicondyle			r_radius_styloid			RHAND		
		X1	Y1	Z1	X2	Y2	Z2	X3	Y3	Z3	X4	Y4	Z4
													
1632	13.592	0.00384	0.88421	0.22728	-0.01603	0.54147	0.25238	0.25336	0.55509	0.24334	0.33893	0.57822	0.1978
1633	13.6	0.00379	0.8842	0.22729	-0.01608	0.54145	0.25237	0.25331	0.55504	0.24334	0.33889	0.57815	0.19779
1634	13.608	0.00374	0.88419	0.2273	-0.01613	0.54143	0.25237	0.25326	0.55499	0.24334	0.33885	0.57809	0.19779
1635	13.617	0.0037	0.88418	0.22731	-0.01618	0.54141	0.25237	0.25321	0.55494	0.24334	0.33881	0.57801	0.19779
1636	13.625	0.00366	0.88416	0.22732	-0.01623	0.54139	0.25237	0.25316	0.55488	0.24335	0.33876	0.57793	0.19778
1637	13.633	0.00362	0.88414	0.22733	-0.01628	0.54137	0.25237	0.25311	0.55481	0.24335	0.33872	0.57784	0.19778
1638	13.642	0.00358	0.88413	0.22733	-0.01633	0.54135	0.25237	0.25306	0.55474	0.24335	0.33866	0.57774	0.19777
1639	13.65	0.00353	0.88412	0.22734	-0.01638	0.54133	0.25236	0.253	0.55466	0.24336	0.33861	0.57764	0.19777
1640	13.658	0.00349	0.8841	0.22734	-0.01644	0.54131	0.25236	0.25293	0.55458	0.24336	0.33856	0.57754	0.19777
1641	13.667	0.00345	0.88409	0.22735	-0.01651	0.54129	0.25236	0.25287	0.5545	0.24337	0.3385	0.57743	0.19778
1642	13.675	0.00341	0.88407	0.22736	-0.01658	0.54127	0.25235	0.2528	0.55441	0.24338	0.33844	0.57732	0.19779
1643	13.683	0.00338	0.88405	0.22736	-0.01665	0.54125	0.25235	0.25272	0.55433	0.24339	0.33838	0.57722	0.19781
1644	13.692	0.00335	0.88403	0.22737	-0.01673	0.54124	0.25234	0.25264	0.55425	0.24339	0.33831	0.57711	0.19782
1645	13.7	0.00333	0.88401	0.22738	-0.01681	0.54122	0.25234	0.25256	0.55417	0.2434	0.33824	0.57701	0.19783
1646	13.708	0.0033	0.884	0.22738	-0.01689	0.54122	0.25234	0.25248	0.5541	0.24341	0.33817	0.57691	0.19784
1647	13.717	0.00328	0.88399	0.22739	-0.01698	0.54121	0.25234	0.25239	0.55403	0.24342	0.33809	0.57681	0.19785
1648	13.725	0.00326	0.88398	0.2274	-0.01707	0.54121	0.25235	0.25231	0.55396	0.24343	0.33801	0.57671	0.19786
1649	13.733	0.00323	0.88398	0.22741	-0.01717	0.5412	0.25236	0.25222	0.5539	0.24343	0.33793	0.57663	0.19787
1650	13.742	0.0032	0.88397	0.22742	-0.01726	0.5412	0.25237	0.25213	0.55384	0.24344	0.33784	0.57654	0.19788
1651	13.75	0.00317	0.88396	0.22743	-0.01736	0.54121	0.25239	0.25204	0.55378	0.24345	0.33776	0.57646	0.19788
1652	13.758	0.00313	0.88396	0.22745	-0.01746	0.54121	0.2524	0.25195	0.55372	0.24346	0.33767	0.57639	0.19789
1653	13.767	0.00309	0.88395	0.22746	-0.01756	0.54121	0.25242	0.25186	0.55366	0.24347	0.33759	0.57632	0.1979
1654	13.775	0.00305	0.88394	0.22748	-0.01766	0.5412	0.25244	0.25177	0.55361	0.24349	0.3375	0.57625	0.19791
1655	13.783	0.003	0.88392	0.22749	-0.01776	0.5412	0.25246	0.25168	0.55356	0.24351	0.33742	0.57618	0.19794
1656	13.792	0.00295	0.88391	0.2275	-0.01786	0.54119	0.25248	0.25159	0.55351	0.24353	0.33734	0.57612	0.19796
1657	13.8	0.0029	0.88389	0.22752	-0.01796	0.54118	0.25249	0.25151	0.55346	0.24356	0.33726	0.57606	0.198
1658	13.808	0.00285	0.88387	0.22753	-0.01806	0.54117	0.2525	0.25142	0.55341	0.24359	0.33718	0.576	0.19804
1659	13.817	0.00279	0.88386	0.22755	-0.01816	0.54116	0.25251	0.25133	0.55336	0.24363	0.3371	0.57594	0.19808
1660	13.825	0.00274	0.88384	0.22756	-0.01825	0.54114	0.25252	0.25124	0.55331	0.24367	0.33702	0.57589	0.19813
1661	13.833	0.00268	0.88382	0.22758	-0.01835	0.54113	0.25252	0.25115	0.55327	0.24371	0.33694	0.57584	0.19818
1662	13.842	0.00262	0.8838	0.2276	-0.01845	0.54111	0.25252	0.25106	0.55323	0.24374	0.33686	0.57579	0.19824
1663	13.85	0.00257	0.88379	0.22761	-0.01854	0.5411	0.25252	0.25096	0.55319	0.24378	0.33678	0.57574	0.19829
1664	13.858	0.0025	0.88377	0.22763	-0.01864	0.54109	0.25252	0.25087	0.55315	0.24382	0.33669	0.57569	0.19835
1665	13.867	0.00244	0.88375	0.22764	-0.01874	0.54107	0.25251	0.25077	0.55312	0.24386	0.3366	0.57565	0.1984
1666	13.875	0.00238	0.88374	0.22766	-0.01884	0.54106	0.25251	0.25067	0.55308	0.2439	0.33651	0.57561	0.19846
1667	13.883	0.00231	0.88372	0.22767	-0.01894	0.54104	0.25251	0.25057	0.55305	0.24393	0.33642	0.57557	0.19851
1668	13.892	0.00225	0.8837	0.22768	-0.01904	0.54103	0.25252	0.25048	0.55302	0.24397	0.33633	0.57554	0.19855
1669	13.9	0.00219	0.88368	0.22769	-0.01914	0.54101	0.25252	0.25038	0.55299	0.244	0.33624	0.57551	0.1986
1670	13.908	0.00213	0.88366	0.2277	-0.01924	0.541	0.25253	0.25029	0.55297	0.24403	0.33614	0.57548	0.19864
1671	13.917	0.00207	0.88365	0.22771	-0.01934	0.54099	0.25254	0.2502	0.55295	0.24406	0.33605	0.57545	0.19868
1672	13.925	0.00201	0.88363	0.22772	-0.01943	0.54098	0.25255	0.25011	0.55293	0.24409	0.33596	0.57543	0.19872
1673	13.933	0.00195	0.88362	0.22773	-0.01952	0.54097	0.25256	0.25002	0.5529	0.24411	0.33586	0.5754	0.19876
1674	13.942	0.00189	0.88361	0.22775	-0.0196	0.54096	0.25258	0.24993	0.55288	0.24414	0.33577	0.57537	0.19879
1675	13.95	0.00183	0.8836	0.22776	-0.01969	0.54095	0.25259	0.24985	0.55286	0.24416	0.33568	0.57535	0.19882
1676	13.958	0.00177	0.88359	0.22777	-0.01977	0.54094	0.2526	0.24976	0.55283	0.24419	0.33559	0.57532	0.19885
1677	13.967	0.00172	0.88358	0.22778	-0.01985	0.54094	0.25261	0.24968	0.55281	0.24421	0.33551	0.57529	0.19889
1678	13.975	0.00166	0.88357	0.2278	-0.01993	0.54093	0.25262	0.2496	0.55278	0.24424	0.33543	0.57527	0.19892
1679	13.983	0.00161	0.88356	0.22781	-0.02	0.54093	0.25263	0.24952	0.55275	0.24426	0.33536	0.57524	0.19897
1680	13.992	0.00155	0.88355	0.22782	-0.02007	0.54092	0.25264	0.24944	0.55273	0.24429	0.33528	0.57522	0.19901
1681	14	0.0015	0.88355	0.22783	-0.02014	0.54091	0.25265	0.24937	0.5527	0.24432	0.33522	0.57519	0.19904
1682	14.008	0.00146	0.88354	0.22785	-0.02021	0.5409	0.25265	0.2493	0.55268	0.24434	0.33516	0.57516	0.19908
1683	14.017	0.00141	0.88353	0.22786	-0.02027	0.54089	0.25266	0.24924	0.55266	0.24437	0.3351	0.57514	0.19911
1684	14.025	0.00136	0.88352	0.22788	-0.02033	0.54088	0.25266	0.24918	0.55264	0.24439	0.33505	0.57511	0.19914
1685	14.033	0.00131	0.88351	0.22789	-0.02038	0.54087	0.25267	0.24913	0.55262	0.24441	0.335	0.57508	0.19917
1686	14.042	0.00126	0.8835	0.22791	-0.02043	0.54086	0.25267	0.24908	0.5526	0.24443	0.33496	0.57505	0.19919
1687	14.05	0.00121	0.88348	0.22792	-0.02048	0.54084	0.25268	0.24903	0.55258	0.24445	0.33491	0.57502	0.19921
1688	14.058	0.00116	0.88347	0.22794	-0.02052	0.54083	0.25269	0.24898	0.55255	0.24446	0.33487	0.57499	0.19923
1689	14.067	0.00111	0.88346	0.22795	-0.02056	0.54082	0.25269	0.24894	0.55253	0.24448	0.33484	0.57496	0.19924
1690	14.075	0.00107	0.88345	0.22797	-0.0206	0.5408	0.2527	0.2489	0.55251	0.24449	0.3348	0.57493	0.19925
1691	14.083	0.00102	0.88343	0.22798	-0.02064	0.54079	0.2527	0.24886	0.55249	0.2445	0.33476	0.5749	0.19926
1692	14.092	0.00097	0.88342	0.228	-0.02068	0.54077	0.25271	0.24882	0.55247	0.24451	0.33472	0.57488	0.19926
1693	14.1	0.00092	0.8834	0.22802	-0.02072	0.54076	0.25271	0.24878	0.55246	0.24451	0.33468	0.57486	0.19925
1694	14.108	0.00086	0.88338	0.22804	-0.02076	0.54074	0.25272	0.24874	0.55245	0.24451	0.33464	0.57485	0.19925
1695	14.117	0.00081	0.88337	0.22805	-0.02079	0.54073	0.25272	0.2487	0.55245	0.24451	0.3346	0.57484	0.19924
1696	14.125	0.00076	0.88335	0.22807	-0.02083	0.54071	0.25273	0.24866	0.55244	0.24451	0.33456	0.57484	0.19922
1697	14.133	0.00071	0.88334	0.22809	-0.02087	0.54069	0.25273	0.24862	0.55244	0.2445	0.33451	0.57484	0.1992
1698	14.142	0.00067	0.88332	0.22811	-0.02091	0.54068	0.25274	0.24858	0.55243	0.24449	0.33447	0.57484	0.19918
1699	14.15	0.00062	0.88331	0.22813	-0.02095	0.54066	0.25275	0.24854	0.55243	0.24448	0.33442	0.57484	0.19916
1700	14.158	0.00057	0.88329	0.22815	-0.02099	0.54064	0.25275	0.2485	0.55243	0.24447	0.33438	0.57484	0.19914
1701	14.167	0.00053	0.88327	0.22817	-0.02103	0.54063	0.25275	0.24846	0.55243	0.24446	0.33434	0.57485	0.19911
1702	14.175	0.00048	0.88325	0.22818	-0.02108	0.54061	0.25276	0.24842	0.55242	0.24445	0.33429	0.57484	0.19909
1703	14.183	0.00043	0.88324	0.2282	-0.02112	0.54059	0.25276	0.24838	0.55242	0.24444	0.33425	0.57484	0.19907
1704	14.192	0.00039	0.88322	0.22821	-0.02116	0.54057	0.25276	0.24834	0.55241	0.24443	0.33421	0.57483	0.19905
1705	14.2	0.00035	0.88321	0.22823	-0.0212	0.54056	0.25276	0.2483	0.5524	0.24442	0.33417	0.57482	0.19903
1706	14.208	0.00031	0.88319	0.22824	-0.02124	0.54054	0.25276	0.24826	0.55238	0.24441	0.33413	0.57481	0.19901
1707	14.217	0.00027	0.88318	0.22826	-0.02129	0.54052	0.25276	0.24822	0.55236	0.2444	0.33409	0.57479	0.199
1708	14.225	0.00023	0.88316	0.22827	-0.02133	0.5405	0.25276	0.24818	0.55234	0.24439	0.33406	0.57476	0.19899
1709	14.233	0.0002	0.88314	0.22828	-0.02137	0.54047	0.25276	0.24815	0.55231	0.24438	0.33402	0.57474	0.19898
1710	14.242	0.00016	0.88312	0.2283	-0.02141	0.54045	0.25275	0.24811	0.55228	0.24437	0.33399	0.57471	0.19897
1711	14.25	0.00012	0.88311	0.22831	-0.02146	0.54043	0.25275	0.24807	0.55225	0.24436	0.33396	0.57467	0.19897
1712	14.258	0.00009	0.88309	0.22832	-0.0215	0.54041	0.25274	0.24803	0.55222	0.24435	0.33392	0.57463	0.19896
1713	14.267	0.00005	0.88307	0.22833	-0.02155	0.54038	0.25274	0.24799	0.55218	0.24434	0.33388	0.57459	0.19895
1714	14.275	0.00002	0.88305	0.22834	-0.02159	0.54036	0.25273	0.24795	0.55214	0.24433	0.33385	0.57454	0.19894
1715	14.283	-0.00001	0.88303	0.22835	-0.02164	0.54034	0.25272	0.24791	0.5521	0.24432	0.33381	0.57449	0.19893
1716	14.292	-0.00004	0.88301	0.22836	-0.02169	0.54032	0.25271	0.24787	0.55206	0.24431	0.33377	0.57444	0.19892
1717	14.3	-0.00007	0.883	0.22837	-0.02174	0.5403	0.2527	0.24782	0.55202	0.24429	0.33372	0.57438	0.1989
1718	14.308	-0.0001	0.88298	0.22838	-0.02179	0.54028	0.25269	0.24777	0.55198	0.24428	0.33367	0.57432	0.19887
1719	14.317	-0.00012	0.88297	0.22839	-0.02184	0.54027	0.25268	0.24772	0.55194	0.24426	0.33363	0.57426	0.19885
1720	14.325	-0.00015	0.88296	0.2284	-0.0219	0.54026	0.25267	0.24767	0.55189	0.24425	0.33358	0.5742	0.19882
1721	14.333	-0.00017	0.88294	0.2284	-0.02196	0.54025	0.25266	0.24762	0.55185	0.24423	0.33353	0.57414	0.19879
1722	14.342	-0.00019	0.88293	0.22841	-0.02202	0.54024	0.25265	0.24757	0.55181	0.24421	0.33347	0.57407	0.19876
1723	14.35	-0.00021	0.88292	0.22841	-0.02209	0.54022	0.25265	0.24751	0.55176	0.2442	0.33342	0.57401	0.19873
